<svg width="800" height="800" viewBox="0 0 800 800" fill="none" xmlns="http://www.w3.org/2000/svg">
<path d="M350 575C474.264 575 575 474.264 575 350C575 225.736 474.264 125 350 125C225.736 125 125 225.736 125 350C125 474.264 225.736 575 350 575Z" stroke="white" stroke-width="50" stroke-miterlimit="10" stroke-linecap="round" stroke-linejoin="round"/>
<path d="M675 675L509.15 509.15" stroke="white" stroke-width="50" stroke-miterlimit="10" stroke-linecap="round" stroke-linejoin="round"/>
<path fill-rule="evenodd" clip-rule="evenodd" d="M403 350L347 387.328V462L459 387.328V312.672L347 238V312.672L403 350Z" stroke="white" stroke-width="48" stroke-linecap="round" stroke-linejoin="round"/>
<path d="M241.656 302.687C236.141 299.011 228.691 300.501 225.015 306.016C221.339 311.531 222.829 318.981 228.344 322.657L241.656 302.687ZM340.344 397.313C345.859 400.989 353.309 399.497 356.985 393.984C360.661 388.469 359.169 381.019 353.656 377.342L340.344 397.313ZM247 312.672C247 306.044 241.627 300.672 235 300.672C228.373 300.672 223 306.044 223 312.672H247ZM223 387.328C223 393.955 228.373 399.328 235 399.328C241.627 399.328 247 393.955 247 387.328H223ZM228.343 302.687C222.829 306.364 221.339 313.814 225.016 319.328C228.692 324.843 236.142 326.333 241.657 322.656L228.343 302.687ZM353.656 247.984C359.171 244.308 360.661 236.857 356.984 231.343C353.307 225.829 345.857 224.339 340.344 228.015L353.656 247.984ZM353.656 322.657C359.169 318.981 360.661 311.531 356.985 306.016C353.309 300.501 345.859 299.011 340.344 302.687L353.656 322.657ZM228.344 377.342C222.829 381.019 221.339 388.469 225.015 393.984C228.691 399.497 236.141 400.989 241.656 397.313L228.344 377.342ZM241.657 377.344C236.142 373.667 228.692 375.157 225.016 380.672C221.339 386.185 222.829 393.635 228.343 397.312L241.657 377.344ZM340.344 471.984C345.857 475.661 353.307 474.171 356.984 468.656C360.661 463.142 359.171 455.693 353.656 452.016L340.344 471.984ZM465.656 322.657C471.169 318.981 472.661 311.531 468.985 306.016C465.309 300.501 457.859 299.011 452.344 302.687L465.656 322.657ZM403 350L396.344 340.014C393.005 342.24 391 345.987 391 350C391 354.013 393.005 357.76 396.344 359.985L403 350ZM452.344 397.313C457.859 400.989 465.309 399.497 468.985 393.984C472.661 388.469 471.169 381.019 465.656 377.342L452.344 397.313ZM228.344 322.657L340.344 397.313L353.656 377.342L241.656 302.687L228.344 322.657ZM223 312.672V387.328H247V312.672H223ZM241.657 322.656L353.656 247.984L340.344 228.015L228.343 302.687L241.657 322.656ZM340.344 302.687L228.344 377.342L241.656 397.313L353.656 322.657L340.344 302.687ZM228.343 397.312L340.344 471.984L353.656 452.016L241.657 377.344L228.343 397.312ZM452.344 302.687L396.344 340.014L409.656 359.985L465.656 322.657L452.344 302.687ZM396.344 359.985L452.344 397.313L465.656 377.342L409.656 340.014L396.344 359.985Z" fill="white"/>
</svg>
