<svg xmlns="http://www.w3.org/2000/svg" width="200" height="200" viewBox="0 0 200 200">
<g>
<path d="M 170.58 198.18 L 165.50 199.93 L 182.75 199.97 L 200.00 200.00 L 0.00 200.00 L 17.75 199.93 C34.02,199.87 35.15,199.76 31.25,198.54 C17.64,194.29 7.39,182.28 5.05,167.86 C3.67,159.35 3.66,88.51 5.04,85.93 C5.96,84.21 7.21,84.00 16.48,84.00 C22.20,84.00 27.12,83.62 27.41,83.15 C27.69,82.69 24.75,75.37 20.86,66.90 C12.81,49.37 11.84,45.30 14.53,40.32 C15.95,37.68 18.20,36.05 24.70,32.96 C29.28,30.78 33.23,29.00 33.47,29.00 C33.71,29.00 39.80,26.30 47.00,23.00 C62.29,15.99 66.26,15.46 71.01,19.75 C73.21,21.74 77.82,30.88 87.79,53.00 L 101.53 83.50 L 107.41 83.80 C110.65,83.97 113.69,83.71 114.17,83.23 C114.67,82.73 113.16,76.00 110.62,67.43 C108.18,59.22 105.75,50.88 105.22,48.91 C103.31,41.85 107.70,39.77 113.59,44.95 C121.13,51.57 137.09,51.75 144.21,45.31 C145.78,43.89 146.00,41.82 146.00,28.66 C146.00,14.60 145.86,13.48 143.83,11.31 C141.50,8.84 136.36,8.20 133.04,9.98 C130.98,11.08 129.00,15.97 129.00,19.95 C129.00,23.01 127.36,25.00 124.84,25.00 C120.95,25.00 119.78,17.10 122.61,10.01 C124.29,5.81 128.16,2.39 132.79,0.99 C134.28,0.54 105.01,0.13 67.75,0.09 L 0.00 0.00 L 200.00 0.00 L 169.75 0.10 C152.72,0.16 140.95,0.55 142.82,0.99 C144.64,1.42 147.27,2.84 148.66,4.14 C153.47,8.63 154.00,10.87 154.00,26.73 C154.00,38.82 154.30,41.98 155.63,43.89 C160.98,51.51 179.24,52.12 187.41,44.95 C191.19,41.63 193.15,41.28 195.07,43.58 C196.18,44.92 195.56,48.03 191.16,63.33 C188.29,73.32 185.95,82.04 185.97,82.70 C185.99,83.41 187.93,84.01 190.75,84.20 L 195.50 84.50 L 195.76 125.96 C195.99,161.56 195.80,168.19 194.42,172.92 C191.10,184.36 181.67,194.35 170.58,198.18 ZM 33.33 190.16 C38.13,191.83 43.07,191.95 102.00,191.73 C164.20,191.50 165.59,191.46 170.05,189.39 C176.70,186.32 181.55,181.62 184.71,175.18 L 187.50 169.50 L 188.11 92.00 L 13.00 92.00 L 13.00 129.87 C13.00,161.20 13.26,168.49 14.52,172.06 C17.49,180.46 24.29,187.01 33.33,190.16 ZM 36.63 81.25 L 38.05 84.00 L 64.47 84.00 C79.00,84.00 91.10,83.65 91.37,83.22 C92.24,81.81 66.61,26.04 64.83,25.46 C62.44,24.68 22.19,42.84 21.50,45.00 C21.05,46.43 31.20,70.74 36.63,81.25 ZM 104.00 152.17 C104.00,157.88 101.73,159.90 98.15,157.40 C96.31,156.10 96.00,154.92 96.00,149.07 C96.00,141.32 96.24,141.00 103.79,138.54 C109.17,136.78 111.35,134.61 112.52,129.83 C113.40,126.23 110.48,120.30 106.91,118.46 C99.26,114.50 88.00,119.38 88.00,126.67 C88.00,129.76 84.30,132.23 81.73,130.85 C80.08,129.97 79.84,129.03 80.23,124.94 C81.14,115.50 89.34,109.00 100.35,109.00 C107.28,109.00 111.47,110.67 115.69,115.13 C121.03,120.78 122.53,128.40 119.65,135.30 C117.97,139.32 112.28,144.41 107.57,146.11 C104.16,147.34 104.00,147.61 104.00,152.17 ZM 154.70 83.37 C155.08,83.75 160.13,83.94 165.92,83.78 L 176.44 83.50 L 180.27 70.63 C182.37,63.55 183.90,57.56 183.65,57.32 C183.41,57.07 180.50,57.36 177.20,57.96 C171.41,59.01 164.96,58.25 156.25,55.48 L 154.00 54.77 L 154.00 68.72 C154.00,76.39 154.31,82.98 154.70,83.37 ZM 124.33 82.78 C124.94,83.72 127.89,83.99 135.33,83.78 L 145.50 83.50 L 145.78 69.13 C146.04,55.71 145.94,54.81 144.28,55.46 C137.10,58.26 130.55,59.13 124.56,58.08 C121.14,57.49 117.86,57.00 117.27,57.00 C116.26,57.00 122.57,80.06 124.33,82.78 ZM 102.95 173.56 C101.56,175.24 100.18,175.34 97.75,173.92 C94.03,171.75 96.69,166.54 101.19,167.17 C103.84,167.55 104.86,171.25 102.95,173.56 ZM 33.40 51.69 C32.42,52.41 31.34,53.00 31.00,53.00 C29.04,53.00 26.85,50.11 27.16,47.94 C27.45,45.88 28.05,45.50 31.00,45.50 C33.95,45.50 34.55,45.88 34.84,47.94 C35.06,49.45 34.50,50.89 33.40,51.69 Z" fill="white" stroke-width="3"/>
<path d="M 0.00 0.00 L 133.39 0.00 L 132.08 0.83 C132.72,0.88 132.97,0.94 132.79,0.99 C131.91,1.25 131.06,1.59 130.25,1.99 L 128.85 2.88 C127.53,3.72 126.45,4.56 125.54,5.47 C124.30,6.79 123.30,8.32 122.63,9.96 C121.30,13.31 120.84,16.81 121.13,19.59 C121.47,22.76 122.77,25.00 124.84,25.00 C122.76,25.00 121.46,22.77 121.13,19.59 C120.84,16.81 121.29,13.32 122.61,10.01 C122.62,9.99 122.63,9.98 122.63,9.96 C122.64,9.94 122.65,9.92 122.66,9.90 C123.34,8.18 124.26,6.76 125.54,5.47 C126.87,4.06 128.47,2.87 130.25,1.99 L 132.08 0.83 C127.29,0.45 100.63,0.13 67.75,0.09 ZM 152.50 9.16 C153.88,11.66 154.00,14.29 154.00,26.43 C154.00,37.84 154.25,41.43 155.34,43.41 C154.26,41.44 154.00,37.88 154.00,26.73 C154.00,16.90 153.80,12.30 152.50,9.16 ZM 143.72 0.68 L 146.08 2.27 C146.23,2.37 146.38,2.48 146.53,2.60 C145.30,1.86 143.91,1.25 142.82,0.99 C142.37,0.88 142.71,0.78 143.72,0.68 Z" fill="white"/>
<path d="M 0.00 100.00 L 0.00 0.00 L 66.70 -0.00 L 133.39 -0.00 L 128.85 2.88 C125.65,4.91 123.83,6.98 122.66,9.90 C119.78,17.09 120.92,25.00 124.84,25.00 C127.36,25.00 129.00,23.01 129.00,19.95 C129.00,15.97 130.98,11.08 133.04,9.98 C136.36,8.20 141.50,8.84 143.83,11.31 C145.86,13.48 146.00,14.60 146.00,28.66 C146.00,41.82 145.78,43.89 144.21,45.31 C137.09,51.75 121.13,51.57 113.59,44.95 C107.70,39.77 103.31,41.85 105.22,48.91 C105.75,50.88 108.18,59.22 110.62,67.43 C113.16,76.00 114.67,82.73 114.17,83.23 C113.69,83.71 110.65,83.97 107.41,83.80 L 101.53 83.50 L 87.79 53.00 C77.82,30.88 73.21,21.74 71.01,19.75 C66.26,15.46 62.29,15.99 47.00,23.00 C39.80,26.30 33.71,29.00 33.47,29.00 C33.23,29.00 29.28,30.78 24.70,32.96 C18.20,36.05 15.95,37.68 14.53,40.32 C11.84,45.30 12.81,49.37 20.86,66.90 C24.75,75.37 27.69,82.69 27.41,83.15 C27.12,83.62 22.20,84.00 16.48,84.00 C7.21,84.00 5.96,84.21 5.04,85.93 C3.66,88.51 3.67,159.35 5.05,167.86 C7.39,182.28 17.64,194.29 31.25,198.54 C35.15,199.76 34.02,199.87 17.75,199.93 L 0.00 200.00 L 0.00 100.00 ZM 170.58 198.18 C181.67,194.35 191.10,184.36 194.42,172.92 C195.80,168.19 195.99,161.56 195.76,125.96 L 195.50 84.50 L 190.75 84.20 C187.93,84.01 185.99,83.41 185.97,82.70 C185.95,82.04 188.29,73.32 191.16,63.33 C195.56,48.03 196.18,44.92 195.07,43.58 C193.15,41.28 191.19,41.63 187.41,44.95 C179.24,52.12 160.98,51.51 155.63,43.89 C154.30,41.98 154.00,38.80 154.00,26.43 C154.00,12.34 153.84,11.06 151.73,7.92 C150.48,6.07 147.93,3.52 146.08,2.27 L 142.70 0.00 L 171.35 0.00 L 200.00 0.00 L 200.00 100.00 L 200.00 200.00 L 182.75 199.97 L 165.50 199.93 L 170.58 198.18 ZM 33.33 190.16 C24.29,187.01 17.49,180.46 14.52,172.06 C13.26,168.49 13.00,161.20 13.00,129.87 L 13.00 92.00 L 100.55 92.00 L 188.11 92.00 L 187.80 130.75 L 187.50 169.50 L 184.71 175.18 C181.55,181.62 176.70,186.32 170.05,189.39 C165.59,191.46 164.20,191.50 102.00,191.73 C43.07,191.95 38.13,191.83 33.33,190.16 ZM 102.95 173.56 C104.86,171.25 103.84,167.55 101.19,167.17 C96.69,166.54 94.03,171.75 97.75,173.92 C100.18,175.34 101.56,175.24 102.95,173.56 ZM 104.00 152.17 C104.00,147.61 104.16,147.34 107.57,146.11 C112.28,144.41 117.97,139.32 119.65,135.30 C122.53,128.40 121.03,120.78 115.69,115.13 C111.47,110.67 107.28,109.00 100.35,109.00 C89.34,109.00 81.14,115.50 80.23,124.94 C79.84,129.03 80.08,129.97 81.73,130.85 C84.30,132.23 88.00,129.76 88.00,126.67 C88.00,119.38 99.26,114.50 106.91,118.46 C110.48,120.30 113.40,126.23 112.52,129.83 C111.35,134.61 109.17,136.78 103.79,138.54 C96.24,141.00 96.00,141.32 96.00,149.07 C96.00,154.92 96.31,156.10 98.15,157.40 C101.73,159.90 104.00,157.88 104.00,152.17 ZM 36.63 81.25 C31.20,70.74 21.05,46.43 21.50,45.00 C22.19,42.84 62.44,24.68 64.83,25.46 C66.61,26.04 92.24,81.81 91.37,83.22 C91.10,83.65 79.00,84.00 64.47,84.00 L 38.05 84.00 L 36.63 81.25 ZM 33.40 51.69 C34.50,50.89 35.06,49.45 34.84,47.94 C34.55,45.88 33.95,45.50 31.00,45.50 C28.05,45.50 27.45,45.88 27.16,47.94 C26.85,50.11 29.04,53.00 31.00,53.00 C31.34,53.00 32.42,52.41 33.40,51.69 ZM 124.33 82.78 C122.57,80.06 116.26,57.00 117.27,57.00 C117.86,57.00 121.14,57.49 124.56,58.08 C130.55,59.13 137.10,58.26 144.28,55.46 C145.94,54.81 146.04,55.71 145.78,69.13 L 145.50 83.50 L 135.33 83.78 C127.89,83.99 124.94,83.72 124.33,82.78 ZM 154.70 83.37 C154.31,82.98 154.00,76.39 154.00,68.72 L 154.00 54.77 L 156.25 55.48 C164.96,58.25 171.41,59.01 177.20,57.96 C180.50,57.36 183.41,57.07 183.65,57.32 C183.90,57.56 182.37,63.55 180.27,70.63 L 176.44 83.50 L 165.92 83.78 C160.13,83.94 155.08,83.75 154.70,83.37 Z" fill="transparent"/>
</g>
</svg>